<svg xmlns="http://www.w3.org/2000/svg" version="1.1" xmlns:xlink="http://www.w3.org/1999/xlink" xmlns:svgjs="http://svgjs.com/svgjs" width="1440" height="560" preserveAspectRatio="none" viewBox="0 0 1440 560"><g mask="url(&quot;#SvgjsMask6768&quot;)" fill="none"><rect width="1440" height="560" x="0" y="0" fill="url(#SvgjsLinearGradient6769)"></rect><use xlink:href="#SvgjsSymbol6776" x="0" y="0"></use><use xlink:href="#SvgjsSymbol6776" x="720" y="0"></use></g><defs><mask id="SvgjsMask6768"><rect width="1440" height="560" fill="#ffffff"></rect></mask><linearGradient x1="50%" y1="0%" x2="50%" y2="100%" gradientUnits="userSpaceOnUse" id="SvgjsLinearGradient6769"><stop stop-color="rgba(255, 255, 255, 1)" offset="0"></stop><stop stop-color="rgba(253, 240, 240, 1)" offset="1"></stop></linearGradient><path d="M-1 0 a1 1 0 1 0 2 0 a1 1 0 1 0 -2 0z" id="SvgjsPath6773"></path><path d="M-3 0 a3 3 0 1 0 6 0 a3 3 0 1 0 -6 0z" id="SvgjsPath6775"></path><path d="M-5 0 a5 5 0 1 0 10 0 a5 5 0 1 0 -10 0z" id="SvgjsPath6771"></path><path d="M2 -2 L-2 2z" id="SvgjsPath6772"></path><path d="M6 -6 L-6 6z" id="SvgjsPath6770"></path><path d="M30 -30 L-30 30z" id="SvgjsPath6774"></path></defs><symbol id="SvgjsSymbol6776"><use xlink:href="#SvgjsPath6770" x="30" y="30" stroke="rgba(255, 235, 56, 1)"></use><use xlink:href="#SvgjsPath6770" x="30" y="90" stroke="rgba(255, 235, 56, 1)"></use><use xlink:href="#SvgjsPath6771" x="30" y="150" stroke="rgba(255, 235, 56, 1)"></use><use xlink:href="#SvgjsPath6772" x="30" y="210" stroke="rgba(255, 235, 56, 1)"></use><use xlink:href="#SvgjsPath6772" x="30" y="270" stroke="rgba(255, 235, 56, 1)"></use><use xlink:href="#SvgjsPath6771" x="30" y="330" stroke="rgba(255, 235, 56, 1)"></use><use xlink:href="#SvgjsPath6771" x="30" y="390" stroke="rgba(255, 235, 56, 1)"></use><use xlink:href="#SvgjsPath6770" x="30" y="450" stroke="rgba(255, 235, 56, 1)"></use><use xlink:href="#SvgjsPath6770" x="30" y="510" stroke="rgba(255, 235, 56, 1)"></use><use xlink:href="#SvgjsPath6773" x="30" y="570" stroke="rgba(255, 235, 56, 1)"></use><use xlink:href="#SvgjsPath6770" x="90" y="30" stroke="rgba(255, 235, 56, 1)"></use><use xlink:href="#SvgjsPath6774" x="90" y="90" stroke="rgba(255, 235, 56, 1)" stroke-width="3"></use><use xlink:href="#SvgjsPath6775" x="90" y="150" stroke="rgba(255, 235, 56, 1)"></use><use xlink:href="#SvgjsPath6775" x="90" y="210" stroke="rgba(255, 235, 56, 1)"></use><use xlink:href="#SvgjsPath6772" x="90" y="270" stroke="rgba(255, 235, 56, 1)"></use><use xlink:href="#SvgjsPath6771" x="90" y="330" stroke="rgba(255, 235, 56, 1)"></use><use xlink:href="#SvgjsPath6770" x="90" y="390" stroke="rgba(255, 235, 56, 1)"></use><use xlink:href="#SvgjsPath6771" x="90" y="450" stroke="rgba(255, 235, 56, 1)"></use><use xlink:href="#SvgjsPath6771" x="90" y="510" stroke="rgba(255, 235, 56, 1)"></use><use xlink:href="#SvgjsPath6771" x="90" y="570" stroke="rgba(255, 235, 56, 1)"></use><use xlink:href="#SvgjsPath6770" x="150" y="30" stroke="rgba(255, 235, 56, 1)"></use><use xlink:href="#SvgjsPath6775" x="150" y="90" stroke="rgba(255, 235, 56, 1)"></use><use xlink:href="#SvgjsPath6770" x="150" y="150" stroke="rgba(255, 235, 56, 1)"></use><use xlink:href="#SvgjsPath6775" x="150" y="210" stroke="rgba(255, 235, 56, 1)"></use><use xlink:href="#SvgjsPath6770" x="150" y="270" stroke="rgba(255, 235, 56, 1)"></use><use xlink:href="#SvgjsPath6771" x="150" y="330" stroke="rgba(255, 235, 56, 1)"></use><use xlink:href="#SvgjsPath6773" x="150" y="390" stroke="rgba(255, 235, 56, 1)"></use><use xlink:href="#SvgjsPath6770" x="150" y="450" stroke="rgba(255, 235, 56, 1)"></use><use xlink:href="#SvgjsPath6771" x="150" y="510" stroke="rgba(255, 235, 56, 1)"></use><use xlink:href="#SvgjsPath6771" x="150" y="570" stroke="rgba(255, 235, 56, 1)"></use><use xlink:href="#SvgjsPath6771" x="210" y="30" stroke="rgba(255, 235, 56, 1)"></use><use xlink:href="#SvgjsPath6774" x="210" y="90" stroke="rgba(255, 235, 56, 1)" stroke-width="3"></use><use xlink:href="#SvgjsPath6771" x="210" y="150" stroke="rgba(255, 235, 56, 1)"></use><use xlink:href="#SvgjsPath6771" x="210" y="210" stroke="rgba(255, 235, 56, 1)"></use><use xlink:href="#SvgjsPath6771" x="210" y="270" stroke="rgba(255, 235, 56, 1)"></use><use xlink:href="#SvgjsPath6770" x="210" y="330" stroke="rgba(255, 235, 56, 1)"></use><use xlink:href="#SvgjsPath6771" x="210" y="390" stroke="rgba(255, 235, 56, 1)"></use><use xlink:href="#SvgjsPath6771" x="210" y="450" stroke="rgba(255, 235, 56, 1)"></use><use xlink:href="#SvgjsPath6770" x="210" y="510" stroke="rgba(255, 235, 56, 1)"></use><use xlink:href="#SvgjsPath6771" x="210" y="570" stroke="rgba(255, 235, 56, 1)"></use><use xlink:href="#SvgjsPath6771" x="270" y="30" stroke="rgba(255, 235, 56, 1)"></use><use xlink:href="#SvgjsPath6772" x="270" y="90" stroke="rgba(255, 235, 56, 1)"></use><use xlink:href="#SvgjsPath6771" x="270" y="150" stroke="rgba(255, 235, 56, 1)"></use><use xlink:href="#SvgjsPath6772" x="270" y="210" stroke="rgba(255, 235, 56, 1)"></use><use xlink:href="#SvgjsPath6771" x="270" y="270" stroke="rgba(255, 235, 56, 1)"></use><use xlink:href="#SvgjsPath6770" x="270" y="330" stroke="rgba(255, 235, 56, 1)"></use><use xlink:href="#SvgjsPath6774" x="270" y="390" stroke="rgba(255, 235, 56, 1)" stroke-width="3"></use><use xlink:href="#SvgjsPath6775" x="270" y="450" stroke="rgba(255, 235, 56, 1)"></use><use xlink:href="#SvgjsPath6770" x="270" y="510" stroke="rgba(255, 235, 56, 1)"></use><use xlink:href="#SvgjsPath6771" x="270" y="570" stroke="rgba(255, 235, 56, 1)"></use><use xlink:href="#SvgjsPath6771" x="330" y="30" stroke="rgba(255, 235, 56, 1)"></use><use xlink:href="#SvgjsPath6772" x="330" y="90" stroke="rgba(255, 235, 56, 1)"></use><use xlink:href="#SvgjsPath6771" x="330" y="150" stroke="rgba(255, 235, 56, 1)"></use><use xlink:href="#SvgjsPath6770" x="330" y="210" stroke="rgba(255, 235, 56, 1)"></use><use xlink:href="#SvgjsPath6771" x="330" y="270" stroke="rgba(255, 235, 56, 1)"></use><use xlink:href="#SvgjsPath6771" x="330" y="330" stroke="rgba(255, 235, 56, 1)"></use><use xlink:href="#SvgjsPath6771" x="330" y="390" stroke="rgba(255, 235, 56, 1)"></use><use xlink:href="#SvgjsPath6773" x="330" y="450" stroke="rgba(255, 235, 56, 1)"></use><use xlink:href="#SvgjsPath6771" x="330" y="510" stroke="rgba(255, 235, 56, 1)"></use><use xlink:href="#SvgjsPath6770" x="330" y="570" stroke="rgba(255, 235, 56, 1)"></use><use xlink:href="#SvgjsPath6770" x="390" y="30" stroke="rgba(255, 235, 56, 1)"></use><use xlink:href="#SvgjsPath6771" x="390" y="90" stroke="rgba(255, 235, 56, 1)"></use><use xlink:href="#SvgjsPath6772" x="390" y="150" stroke="rgba(255, 235, 56, 1)"></use><use xlink:href="#SvgjsPath6770" x="390" y="210" stroke="rgba(255, 235, 56, 1)"></use><use xlink:href="#SvgjsPath6773" x="390" y="270" stroke="rgba(255, 235, 56, 1)"></use><use xlink:href="#SvgjsPath6770" x="390" y="330" stroke="rgba(255, 235, 56, 1)"></use><use xlink:href="#SvgjsPath6770" x="390" y="390" stroke="rgba(255, 235, 56, 1)"></use><use xlink:href="#SvgjsPath6775" x="390" y="450" stroke="rgba(255, 235, 56, 1)"></use><use xlink:href="#SvgjsPath6770" x="390" y="510" stroke="rgba(255, 235, 56, 1)"></use><use xlink:href="#SvgjsPath6770" x="390" y="570" stroke="rgba(255, 235, 56, 1)"></use><use xlink:href="#SvgjsPath6771" x="450" y="30" stroke="rgba(255, 235, 56, 1)"></use><use xlink:href="#SvgjsPath6772" x="450" y="90" stroke="rgba(255, 235, 56, 1)"></use><use xlink:href="#SvgjsPath6770" x="450" y="150" stroke="rgba(255, 235, 56, 1)"></use><use xlink:href="#SvgjsPath6770" x="450" y="210" stroke="rgba(255, 235, 56, 1)"></use><use xlink:href="#SvgjsPath6774" x="450" y="270" stroke="rgba(255, 235, 56, 1)" stroke-width="3"></use><use xlink:href="#SvgjsPath6771" x="450" y="330" stroke="rgba(255, 235, 56, 1)"></use><use xlink:href="#SvgjsPath6770" x="450" y="390" stroke="rgba(255, 235, 56, 1)"></use><use xlink:href="#SvgjsPath6770" x="450" y="450" stroke="rgba(255, 235, 56, 1)"></use><use xlink:href="#SvgjsPath6771" x="450" y="510" stroke="rgba(255, 235, 56, 1)"></use><use xlink:href="#SvgjsPath6772" x="450" y="570" stroke="rgba(255, 235, 56, 1)"></use><use xlink:href="#SvgjsPath6770" x="510" y="30" stroke="rgba(255, 235, 56, 1)"></use><use xlink:href="#SvgjsPath6771" x="510" y="90" stroke="rgba(255, 235, 56, 1)"></use><use xlink:href="#SvgjsPath6773" x="510" y="150" stroke="rgba(255, 235, 56, 1)"></use><use xlink:href="#SvgjsPath6771" x="510" y="210" stroke="rgba(255, 235, 56, 1)"></use><use xlink:href="#SvgjsPath6770" x="510" y="270" stroke="rgba(255, 235, 56, 1)"></use><use xlink:href="#SvgjsPath6771" x="510" y="330" stroke="rgba(255, 235, 56, 1)"></use><use xlink:href="#SvgjsPath6770" x="510" y="390" stroke="rgba(255, 235, 56, 1)"></use><use xlink:href="#SvgjsPath6773" x="510" y="450" stroke="rgba(255, 235, 56, 1)"></use><use xlink:href="#SvgjsPath6773" x="510" y="510" stroke="rgba(255, 235, 56, 1)"></use><use xlink:href="#SvgjsPath6771" x="510" y="570" stroke="rgba(255, 235, 56, 1)"></use><use xlink:href="#SvgjsPath6770" x="570" y="30" stroke="rgba(255, 235, 56, 1)"></use><use xlink:href="#SvgjsPath6772" x="570" y="90" stroke="rgba(255, 235, 56, 1)"></use><use xlink:href="#SvgjsPath6775" x="570" y="150" stroke="rgba(255, 235, 56, 1)"></use><use xlink:href="#SvgjsPath6773" x="570" y="210" stroke="rgba(255, 235, 56, 1)"></use><use xlink:href="#SvgjsPath6771" x="570" y="270" stroke="rgba(255, 235, 56, 1)"></use><use xlink:href="#SvgjsPath6771" x="570" y="330" stroke="rgba(255, 235, 56, 1)"></use><use xlink:href="#SvgjsPath6770" x="570" y="390" stroke="rgba(255, 235, 56, 1)"></use><use xlink:href="#SvgjsPath6771" x="570" y="450" stroke="rgba(255, 235, 56, 1)"></use><use xlink:href="#SvgjsPath6772" x="570" y="510" stroke="rgba(255, 235, 56, 1)"></use><use xlink:href="#SvgjsPath6770" x="570" y="570" stroke="rgba(255, 235, 56, 1)"></use><use xlink:href="#SvgjsPath6772" x="630" y="30" stroke="rgba(255, 235, 56, 1)"></use><use xlink:href="#SvgjsPath6774" x="630" y="90" stroke="rgba(255, 235, 56, 1)" stroke-width="3"></use><use xlink:href="#SvgjsPath6770" x="630" y="150" stroke="rgba(255, 235, 56, 1)"></use><use xlink:href="#SvgjsPath6772" x="630" y="210" stroke="rgba(255, 235, 56, 1)"></use><use xlink:href="#SvgjsPath6775" x="630" y="270" stroke="rgba(255, 235, 56, 1)"></use><use xlink:href="#SvgjsPath6771" x="630" y="330" stroke="rgba(255, 235, 56, 1)"></use><use xlink:href="#SvgjsPath6774" x="630" y="390" stroke="rgba(255, 235, 56, 1)" stroke-width="3"></use><use xlink:href="#SvgjsPath6772" x="630" y="450" stroke="rgba(255, 235, 56, 1)"></use><use xlink:href="#SvgjsPath6773" x="630" y="510" stroke="rgba(255, 235, 56, 1)"></use><use xlink:href="#SvgjsPath6773" x="630" y="570" stroke="rgba(255, 235, 56, 1)"></use><use xlink:href="#SvgjsPath6770" x="690" y="30" stroke="rgba(255, 235, 56, 1)"></use><use xlink:href="#SvgjsPath6773" x="690" y="90" stroke="rgba(255, 235, 56, 1)"></use><use xlink:href="#SvgjsPath6771" x="690" y="150" stroke="rgba(255, 235, 56, 1)"></use><use xlink:href="#SvgjsPath6772" x="690" y="210" stroke="rgba(255, 235, 56, 1)"></use><use xlink:href="#SvgjsPath6772" x="690" y="270" stroke="rgba(255, 235, 56, 1)"></use><use xlink:href="#SvgjsPath6770" x="690" y="330" stroke="rgba(255, 235, 56, 1)"></use><use xlink:href="#SvgjsPath6775" x="690" y="390" stroke="rgba(255, 235, 56, 1)"></use><use xlink:href="#SvgjsPath6771" x="690" y="450" stroke="rgba(255, 235, 56, 1)"></use><use xlink:href="#SvgjsPath6773" x="690" y="510" stroke="rgba(255, 235, 56, 1)"></use><use xlink:href="#SvgjsPath6774" x="690" y="570" stroke="rgba(255, 235, 56, 1)" stroke-width="3"></use></symbol></svg>